<svg viewBox="0 0 12 12" width="60px" height="60px" xmlns="http://www.w3.org/2000/svg"><path fill-rule="evenodd" d="M 2,0 9,0 9,2 11,2 11,5 10,5 10,11 7,11 7,9 6,9 6,8 5,8 5,9 4,9 4,11 1,11 1,5 0,5 0,2 2,2z" fill="#4C90F0"/><path fill-rule="evenodd" d="M 3,1 5,1 5,2 3,2z" fill="#ffffff"/><path fill-rule="evenodd" d="M 6,1 8,1 8,2 6,2z" fill="#ffffff"/><path fill-rule="evenodd" d="M 5,2 6,2 6,7 5,7z" fill="#ffffff"/><path fill-rule="evenodd" d="M 1,3 2,3 2,4 1,4z" fill="#ffffff"/><path fill-rule="evenodd" d="M 9,3 10,3 10,4 9,4z" fill="#ffffff"/><path fill-rule="evenodd" d="M 3,4 4,4 4,6 3,6z" fill="#ffffff"/><path fill-rule="evenodd" d="M 7,4 8,4 8,6 7,6z" fill="#ffffff"/><path fill-rule="evenodd" d="M 2,6 3,6 3,7 2,7z" fill="#ffffff"/><path fill-rule="evenodd" d="M 8,6 9,6 9,7 8,7z" fill="#ffffff"/><path fill-rule="evenodd" d="M 3,7 4,7 4,8 3,8z" fill="#ffffff"/><path fill-rule="evenodd" d="M 7,7 8,7 8,8 7,8z" fill="#ffffff"/><path fill-rule="evenodd" d="M 2,8 3,8 3,10 2,10z" fill="#ffffff"/><path fill-rule="evenodd" d="M 8,8 9,8 9,10 8,10z" fill="#ffffff"/></svg>